<svg width="320" height="320" viewBox="0 0 320 320" fill="none" xmlns="http://www.w3.org/2000/svg">
  <defs>
    <linearGradient id="orbStroke" x1="40" y1="40" x2="280" y2="280" gradientUnits="userSpaceOnUse">
      <stop stop-color="#38BDF8"/>
      <stop offset="1" stop-color="#6366F1"/>
    </linearGradient>
    <linearGradient id="candleUp" x1="0" y1="0" x2="0" y2="1">
      <stop stop-color="#BBF7D0"/>
      <stop offset="1" stop-color="#22C55E"/>
    </linearGradient>
    <linearGradient id="candleDown" x1="0" y1="0" x2="0" y2="1">
      <stop stop-color="#FCA5A5"/>
      <stop offset="1" stop-color="#EF4444"/>
    </linearGradient>
  </defs>

  <!-- Orb outline -->
  <circle cx="160" cy="136" r="110" stroke="url(#orbStroke)" stroke-width="2.5" fill="none" opacity="0.8"/>

  <!-- Brain-like arcs -->
  <path d="M80 140C96 112 122 94 160 94C198 94 224 112 240 140" stroke="#A5B4FC" stroke-width="3" stroke-linecap="round" opacity="0.85"/>
  <path d="M88 152C104 130 126 118 160 118C194 118 216 130 232 152" stroke="#38BDF8" stroke-width="2" stroke-linecap="round" opacity="0.8"/>

  <!-- Neuron nodes -->
  <circle cx="96" cy="152" r="4" fill="#F9FAFB"/>
  <circle cx="124" cy="132" r="4" fill="#F9FAFB"/>
  <circle cx="160" cy="144" r="4" fill="#F9FAFB"/>
  <circle cx="196" cy="132" r="4" fill="#F9FAFB"/>
  <circle cx="224" cy="152" r="4" fill="#F9FAFB"/>

  <!-- Connections -->
  <path d="M96 152L124 132L160 144L196 132L224 152" stroke="#E5E7EB" stroke-width="1.4" stroke-linecap="round" stroke-linejoin="round" opacity="0.9"/>

  <!-- Candlestick group -->
  <g transform="translate(96 160)">
    <!-- Down candle -->
    <line x1="8" y1="4" x2="8" y2="64" stroke="#E5E7EB" stroke-width="1.4" stroke-linecap="round"/>
    <rect x="4" y="24" width="8" height="20" rx="2.4" fill="url(#candleDown)"/>

    <!-- Up candle high -->
    <line x1="40" y1="0" x2="40" y2="68" stroke="#E5E7EB" stroke-width="1.4" stroke-linecap="round"/>
    <rect x="36" y="8" width="8" height="28" rx="2.4" fill="url(#candleUp)"/>

    <!-- Up candle -->
    <line x1="72" y1="8" x2="72" y2="64" stroke="#E5E7EB" stroke-width="1.4" stroke-linecap="round"/>
    <rect x="68" y="26" width="8" height="20" rx="2.4" fill="url(#candleUp)"/>

    <!-- Down candle right -->
    <line x1="104" y1="4" x2="104" y2="64" stroke="#E5E7EB" stroke-width="1.4" stroke-linecap="round"/>
    <rect x="100" y="30" width="8" height="16" rx="2.4" fill="url(#candleDown)"/>
  </g>
</svg>

